<mxfile host="app.diagrams.net" modified="2024-04-06T23:42:43.808Z" agent="Mozilla/5.0 (Windows NT 10.0; Win64; x64) AppleWebKit/537.36 (KHTML, like Gecko) Chrome/123.0.0.0 Safari/537.36" etag="GfOwdIo-IrKPgHsm6vj7" version="24.2.2" type="github">
  <diagram name="PÃ¡gina-1" id="uEBIIxsloZU-PJ0lmcHN">
    <mxGraphModel dx="1450" dy="1007" grid="0" gridSize="10" guides="1" tooltips="1" connect="1" arrows="1" fold="1" page="0" pageScale="1" pageWidth="827" pageHeight="1169" math="0" shadow="0">
      <root>
        <mxCell id="0" />
        <mxCell id="1" parent="0" />
        <mxCell id="0AXA_-gV2G1Phm0sxOc1-34" style="edgeStyle=none;curved=1;rounded=0;orthogonalLoop=1;jettySize=auto;html=1;exitX=1;exitY=0.5;exitDx=0;exitDy=0;entryX=0;entryY=0.5;entryDx=0;entryDy=0;fontSize=12;startSize=8;endSize=8;" edge="1" parent="1" source="0AXA_-gV2G1Phm0sxOc1-32" target="0AXA_-gV2G1Phm0sxOc1-30">
          <mxGeometry relative="1" as="geometry" />
        </mxCell>
        <mxCell id="0AXA_-gV2G1Phm0sxOc1-32" value="MCU" style="rounded=0;whiteSpace=wrap;html=1;" vertex="1" parent="1">
          <mxGeometry x="104.5" y="254" width="120" height="79" as="geometry" />
        </mxCell>
        <mxCell id="0AXA_-gV2G1Phm0sxOc1-29" value="110110" style="rounded=0;whiteSpace=wrap;html=1;" vertex="1" parent="1">
          <mxGeometry x="122" y="305" width="89" height="20" as="geometry" />
        </mxCell>
        <mxCell id="0AXA_-gV2G1Phm0sxOc1-1" value="AUDIO&lt;div&gt;DB SPL&lt;/div&gt;" style="text;html=1;align=center;verticalAlign=middle;whiteSpace=wrap;rounded=0;fontSize=16;" vertex="1" parent="1">
          <mxGeometry x="-19" y="27" width="60" height="30" as="geometry" />
        </mxCell>
        <mxCell id="0AXA_-gV2G1Phm0sxOc1-2" value="Actor" style="shape=umlActor;verticalLabelPosition=bottom;verticalAlign=top;html=1;outlineConnect=0;" vertex="1" parent="1">
          <mxGeometry x="-32" y="105" width="30" height="60" as="geometry" />
        </mxCell>
        <mxCell id="0AXA_-gV2G1Phm0sxOc1-4" value="" style="sketch=0;pointerEvents=1;shadow=0;dashed=0;html=1;strokeColor=none;fillColor=#434445;aspect=fixed;labelPosition=center;verticalLabelPosition=bottom;verticalAlign=top;align=center;outlineConnect=0;shape=mxgraph.vvd.wi_fi;rotation=30;" vertex="1" parent="1">
          <mxGeometry x="22" y="110" width="50" height="50" as="geometry" />
        </mxCell>
        <mxCell id="0AXA_-gV2G1Phm0sxOc1-5" value="Actor" style="shape=umlActor;verticalLabelPosition=bottom;verticalAlign=top;html=1;outlineConnect=0;" vertex="1" parent="1">
          <mxGeometry x="90" y="107" width="30" height="60" as="geometry" />
        </mxCell>
        <mxCell id="0AXA_-gV2G1Phm0sxOc1-7" value="MIC" style="rounded=0;whiteSpace=wrap;html=1;" vertex="1" parent="1">
          <mxGeometry x="217" y="25" width="99" height="42" as="geometry" />
        </mxCell>
        <mxCell id="0AXA_-gV2G1Phm0sxOc1-8" value="" style="curved=1;endArrow=classic;html=1;rounded=0;fontSize=12;startSize=8;endSize=8;" edge="1" parent="1">
          <mxGeometry width="50" height="50" relative="1" as="geometry">
            <mxPoint x="124" y="25" as="sourcePoint" />
            <mxPoint x="216" y="42" as="targetPoint" />
            <Array as="points">
              <mxPoint x="150" y="73" />
              <mxPoint x="166" y="42" />
              <mxPoint x="188" y="13" />
            </Array>
          </mxGeometry>
        </mxCell>
        <mxCell id="0AXA_-gV2G1Phm0sxOc1-18" style="edgeStyle=none;curved=1;rounded=0;orthogonalLoop=1;jettySize=auto;html=1;exitX=1;exitY=0.5;exitDx=0;exitDy=0;entryX=0;entryY=0.5;entryDx=0;entryDy=0;fontSize=12;startSize=8;endSize=8;" edge="1" parent="1" source="0AXA_-gV2G1Phm0sxOc1-10" target="0AXA_-gV2G1Phm0sxOc1-11">
          <mxGeometry relative="1" as="geometry" />
        </mxCell>
        <mxCell id="0AXA_-gV2G1Phm0sxOc1-10" value="ADC" style="rounded=0;whiteSpace=wrap;html=1;" vertex="1" parent="1">
          <mxGeometry x="375" y="25" width="99" height="42" as="geometry" />
        </mxCell>
        <mxCell id="0AXA_-gV2G1Phm0sxOc1-19" style="edgeStyle=none;curved=1;rounded=0;orthogonalLoop=1;jettySize=auto;html=1;exitX=0.25;exitY=1;exitDx=0;exitDy=0;entryX=1;entryY=0.75;entryDx=0;entryDy=0;fontSize=12;startSize=8;endSize=8;" edge="1" parent="1" source="0AXA_-gV2G1Phm0sxOc1-11" target="0AXA_-gV2G1Phm0sxOc1-12">
          <mxGeometry relative="1" as="geometry" />
        </mxCell>
        <mxCell id="0AXA_-gV2G1Phm0sxOc1-26" style="edgeStyle=none;curved=1;rounded=0;orthogonalLoop=1;jettySize=auto;html=1;exitX=1;exitY=0.5;exitDx=0;exitDy=0;fontSize=12;startSize=8;endSize=8;" edge="1" parent="1" source="0AXA_-gV2G1Phm0sxOc1-11" target="0AXA_-gV2G1Phm0sxOc1-25">
          <mxGeometry relative="1" as="geometry" />
        </mxCell>
        <mxCell id="0AXA_-gV2G1Phm0sxOc1-11" value="DC" style="rounded=0;whiteSpace=wrap;html=1;" vertex="1" parent="1">
          <mxGeometry x="520" y="68" width="99" height="42" as="geometry" />
        </mxCell>
        <mxCell id="0AXA_-gV2G1Phm0sxOc1-20" style="edgeStyle=none;curved=1;rounded=0;orthogonalLoop=1;jettySize=auto;html=1;exitX=0;exitY=0.5;exitDx=0;exitDy=0;entryX=1;entryY=0.5;entryDx=0;entryDy=0;fontSize=12;startSize=8;endSize=8;" edge="1" parent="1" source="0AXA_-gV2G1Phm0sxOc1-12" target="0AXA_-gV2G1Phm0sxOc1-13">
          <mxGeometry relative="1" as="geometry" />
        </mxCell>
        <mxCell id="0AXA_-gV2G1Phm0sxOc1-12" value="DAC" style="rounded=0;whiteSpace=wrap;html=1;" vertex="1" parent="1">
          <mxGeometry x="379" y="125" width="99" height="42" as="geometry" />
        </mxCell>
        <mxCell id="0AXA_-gV2G1Phm0sxOc1-13" value="SPK" style="rounded=0;whiteSpace=wrap;html=1;" vertex="1" parent="1">
          <mxGeometry x="215" y="125" width="99" height="42" as="geometry" />
        </mxCell>
        <mxCell id="0AXA_-gV2G1Phm0sxOc1-14" value="" style="endArrow=none;html=1;rounded=0;fontSize=12;startSize=8;endSize=8;curved=1;" edge="1" parent="1">
          <mxGeometry width="50" height="50" relative="1" as="geometry">
            <mxPoint x="318" y="46" as="sourcePoint" />
            <mxPoint x="372" y="46" as="targetPoint" />
          </mxGeometry>
        </mxCell>
        <mxCell id="0AXA_-gV2G1Phm0sxOc1-21" value="FISICO" style="text;html=1;align=center;verticalAlign=middle;whiteSpace=wrap;rounded=0;fontSize=16;" vertex="1" parent="1">
          <mxGeometry x="231" y="-19" width="60" height="30" as="geometry" />
        </mxCell>
        <mxCell id="0AXA_-gV2G1Phm0sxOc1-22" value="ELECTRONICO&lt;div&gt;ANG&lt;/div&gt;" style="text;html=1;align=center;verticalAlign=middle;whiteSpace=wrap;rounded=0;fontSize=16;" vertex="1" parent="1">
          <mxGeometry x="387" y="-19" width="60" height="30" as="geometry" />
        </mxCell>
        <mxCell id="0AXA_-gV2G1Phm0sxOc1-24" value="DIGITAL" style="text;html=1;align=center;verticalAlign=middle;whiteSpace=wrap;rounded=0;fontSize=16;" vertex="1" parent="1">
          <mxGeometry x="520" y="9" width="60" height="30" as="geometry" />
        </mxCell>
        <mxCell id="0AXA_-gV2G1Phm0sxOc1-25" value="DSP" style="text;html=1;align=center;verticalAlign=middle;whiteSpace=wrap;rounded=0;fontSize=16;" vertex="1" parent="1">
          <mxGeometry x="661" y="74" width="60" height="30" as="geometry" />
        </mxCell>
        <mxCell id="0AXA_-gV2G1Phm0sxOc1-33" style="edgeStyle=none;curved=1;rounded=0;orthogonalLoop=1;jettySize=auto;html=1;exitX=1;exitY=0.5;exitDx=0;exitDy=0;entryX=0;entryY=0.75;entryDx=0;entryDy=0;fontSize=12;startSize=8;endSize=8;" edge="1" parent="1" source="0AXA_-gV2G1Phm0sxOc1-28" target="0AXA_-gV2G1Phm0sxOc1-32">
          <mxGeometry relative="1" as="geometry" />
        </mxCell>
        <mxCell id="0AXA_-gV2G1Phm0sxOc1-28" value="PC" style="rounded=0;whiteSpace=wrap;html=1;" vertex="1" parent="1">
          <mxGeometry x="-41" y="291" width="99" height="42" as="geometry" />
        </mxCell>
        <mxCell id="0AXA_-gV2G1Phm0sxOc1-35" style="edgeStyle=none;curved=1;rounded=0;orthogonalLoop=1;jettySize=auto;html=1;exitX=1;exitY=0.5;exitDx=0;exitDy=0;entryX=0;entryY=0.5;entryDx=0;entryDy=0;fontSize=12;startSize=8;endSize=8;" edge="1" parent="1" source="0AXA_-gV2G1Phm0sxOc1-30" target="0AXA_-gV2G1Phm0sxOc1-31">
          <mxGeometry relative="1" as="geometry" />
        </mxCell>
        <mxCell id="0AXA_-gV2G1Phm0sxOc1-30" value="AMP" style="rounded=0;whiteSpace=wrap;html=1;" vertex="1" parent="1">
          <mxGeometry x="258" y="287" width="99" height="42" as="geometry" />
        </mxCell>
        <mxCell id="0AXA_-gV2G1Phm0sxOc1-31" value="SPK" style="rounded=0;whiteSpace=wrap;html=1;" vertex="1" parent="1">
          <mxGeometry x="403" y="287" width="99" height="42" as="geometry" />
        </mxCell>
        <mxCell id="0AXA_-gV2G1Phm0sxOc1-36" value="AUDIO DIGITAL" style="text;html=1;align=center;verticalAlign=middle;whiteSpace=wrap;rounded=0;fontSize=16;" vertex="1" parent="1">
          <mxGeometry x="37" y="247" width="60" height="30" as="geometry" />
        </mxCell>
        <mxCell id="0AXA_-gV2G1Phm0sxOc1-37" value="WAV&lt;div&gt;RAW&lt;/div&gt;&lt;div&gt;MP3&lt;/div&gt;" style="text;html=1;align=center;verticalAlign=middle;whiteSpace=wrap;rounded=0;fontSize=16;" vertex="1" parent="1">
          <mxGeometry x="30" y="355" width="60" height="30" as="geometry" />
        </mxCell>
      </root>
    </mxGraphModel>
  </diagram>
</mxfile>
